<?xml version="1.0" encoding="UTF-8"?>
<svg width="35px" height="24px" viewBox="0 0 35 24" version="1.1" xmlns="http://www.w3.org/2000/svg" xmlns:xlink="http://www.w3.org/1999/xlink">
    <defs></defs>
    <g id="Page-1" stroke="none" stroke-width="1" fill="none" fill-rule="evenodd">
        <g id="index" transform="translate(-240.000000, -678.000000)" fill-rule="nonzero" fill="#FFFFFF">
            <g id="cars" transform="translate(240.000000, 678.000000)">
                <path d="M34.5138889,3.84 L32.6666667,3.84 C32.6666667,3.84 31.8636111,2.10336 31.5554167,1.464 C31.0498611,0.45024 30.7620833,0 29.30375,0 L26.25,0 L20.7656944,0 C19.4901389,0 19.0166667,0.46464 18.5140278,1.464 L18.0716667,2.32416 C18.8290278,2.5392 19.6272222,3.08928 19.6272222,3.08928 C19.6272222,3.08928 19.94125,2.55264 20.055,2.30784 C20.1755556,2.0976 20.3408333,1.92 20.6441667,1.92 L29.4243056,1.92 C29.7276389,1.92 29.8929167,2.0976 30.0144444,2.30784 C30.17875,2.66208 30.6833333,4.8 30.6833333,4.8 L20.6597222,4.8 L22.1180556,8.64 L23.03,8.64 C23.9954167,8.64 24.3055556,8.90592 24.3055556,9.8592 L24.3055556,12.48 L28.1944444,12.48 L28.1944444,14.4 L23.3333333,14.4 L23.3333333,15.36 L31.1111111,15.36 L31.1111111,16.8 C31.1111111,17.064 31.3298611,17.28 31.5972222,17.28 L33.5416667,17.28 C33.8090278,17.28 34.0277778,17.064 34.0277778,16.8 L34.0277778,6.72 L33.6223611,5.76 L34.5138889,5.76 C34.7822222,5.76 35,5.54496 35,5.28 L35,4.32 C35,4.05504 34.7822222,3.84 34.5138889,3.84 Z M33.0555556,9.6 L32.0833333,10.56 L30.1388889,10.56 L30.1388889,8.64 L33.0555556,7.584 L33.0555556,9.6 Z" id="Shape"></path>
                <path d="M22.8472222,9.6 L21,9.6 L19.4026389,5.304 C18.8523611,4.21536 18.4265278,3.84 17.1509722,3.84 L6.18236111,3.84 C4.90680556,3.84 4.48097222,4.21536 3.93069444,5.304 L2.33333333,9.6 L0.486111111,9.6 C0.217777778,9.6 0,9.81504 0,10.08 L0,11.04 C0,11.30496 0.217777778,11.52 0.486111111,11.52 L1.37763889,11.52 L0.972222222,12.48 L0.972222222,23.52 C0.972222222,23.784 1.19097222,24 1.45833333,24 L3.40277778,24 C3.67013889,24 3.88888889,23.784 3.88888889,23.52 L3.88888889,22.08 L11.6666667,22.08 L19.4444444,22.08 L19.4444444,23.52 C19.4444444,23.784 19.6631944,24 19.9305556,24 L21.875,24 C22.1423611,24 22.3611111,23.784 22.3611111,23.52 L22.3611111,12.48 L21.9556944,11.52 L22.8472222,11.52 C23.1155556,11.52 23.3333333,11.30496 23.3333333,11.04 L23.3333333,10.08 C23.3333333,9.81504 23.1155556,9.6 22.8472222,9.6 Z M5.47069444,6.14784 C5.59222222,5.9376 5.7575,5.76 6.06083333,5.76 L17.2715278,5.76 C17.5748611,5.76 17.7401389,5.9376 17.8616667,6.14784 C18.0259722,6.50112 19.0166667,10.56 19.0166667,10.56 L4.31569444,10.56 C4.31569444,10.56 5.30736111,6.50112 5.47069444,6.14784 Z M5.83333333,16.32 L2.91666667,16.32 L1.94444444,15.36 L1.94444444,13.344 L5.83333333,14.4 L5.83333333,16.32 Z M15.5555556,20.16 L7.77777778,20.16 L7.77777778,18.24 L15.5555556,18.24 L15.5555556,20.16 Z M21.3888889,15.36 L20.4166667,16.32 L17.5,16.32 L17.5,14.4 L21.3888889,13.344 L21.3888889,15.36 Z" id="Shape"></path>
            </g>
        </g>
    </g>
</svg>