<?xml version="1.0" encoding="UTF-8"?>
<svg width="16px" height="16px" viewBox="0 0 16 16" version="1.1" xmlns="http://www.w3.org/2000/svg" xmlns:xlink="http://www.w3.org/1999/xlink">
    <defs></defs>
    <g id="Page-1" stroke="none" stroke-width="1" fill="none" fill-rule="evenodd">
        <g id="admin+modal+edit_add" transform="translate(-918.000000, -205.000000)" fill-rule="nonzero" fill="#D6D5C9">
            <g id="modal_card" transform="translate(-1.000000, 63.000000)">
                <path d="M921.265408,157.857857 L919.151027,155.734592 C919.050342,155.63983 919,155.521377 919,155.379234 C919,155.237091 919.050342,155.118638 919.151027,155.023876 L924.170461,150.004442 L919.151027,144.985008 C919.050342,144.884324 919,144.762909 919,144.620766 C919,144.478623 919.050342,144.36017 919.151027,144.265408 L921.265408,142.151027 C921.36017,142.050342 921.478623,142 921.620766,142 C921.762909,142 921.881362,142.050342 921.976124,142.151027 L927.004442,147.170461 L932.023876,142.151027 C932.118638,142.050342 932.237091,142 932.379234,142 C932.521377,142 932.63983,142.050342 932.734592,142.151027 L934.848973,144.265408 C934.949658,144.366093 935,144.486026 935,144.625208 C935,144.76439 934.949658,144.884324 934.848973,144.985008 L929.838423,150.004442 L934.848973,155.014992 C934.949658,155.115676 935,155.23561 935,155.374792 C935,155.513974 934.949658,155.633907 934.848973,155.734592 L932.734592,157.848973 C932.633907,157.949658 932.513974,158 932.374792,158 C932.23561,158 932.115676,157.949658 932.014992,157.848973 L927.004442,152.838423 L921.985008,157.857857 C921.884324,157.952619 921.76439,158 921.625208,158 C921.486026,158 921.366093,157.952619 921.265408,157.857857 Z" id="close"></path>
            </g>
        </g>
    </g>
</svg>