<?xml version="1.0" encoding="UTF-8"?>
<svg width="16px" height="16px" viewBox="0 0 16 16" version="1.1" xmlns="http://www.w3.org/2000/svg" xmlns:xlink="http://www.w3.org/1999/xlink">
    <defs></defs>
    <g id="Page-1" stroke="none" stroke-width="1" fill="none" fill-rule="evenodd">
        <g id="admin+modal+edit_add" transform="translate(-1185.000000, -24.000000)" fill-rule="nonzero" fill="#FFFFFF">
            <g id="header">
                <path d="M1200.70132,37.807771 L1197.04207,34.1404783 C1197.6908,33.1295021 1198.07311,31.9328909 1198.07311,30.6481366 C1198.07311,30.6267685 1198.06645,30.6054004 1198.06645,30.5840324 C1198.06645,30.5733484 1198.06911,30.5626643 1198.06911,30.5519803 C1198.06911,26.9327657 1195.14252,24 1191.53389,24 C1187.92526,24 1185,26.9314302 1185,30.5506448 C1185,34.1698594 1187.9266,37.1026251 1191.53522,37.1026251 C1191.54188,37.1026251 1191.54854,37.0999541 1191.5552,37.0999541 C1191.57918,37.0999541 1191.60183,37.1066316 1191.62714,37.1066316 C1192.90994,37.1066316 1194.10482,36.7246776 1195.11188,36.0742874 L1198.76979,39.7415801 C1199.11214,40.08614 1199.44516,40.08614 1199.91938,39.7415801 L1200.70132,38.9576395 C1201.06764,38.563666 1201.13025,38.2511581 1200.70132,37.807771 Z M1191.53522,26.2476524 C1193.90501,26.2476524 1195.82721,28.1734485 1195.82721,30.5506448 C1195.82721,32.9265056 1193.90634,34.8536372 1191.53522,34.8536372 C1189.16411,34.8536372 1187.24324,32.9265056 1187.24324,30.5506448 C1187.24324,28.174784 1189.16544,26.2476524 1191.53522,26.2476524 Z" id="path_2_"></path>
            </g>
        </g>
    </g>
</svg>