<?xml version="1.0" encoding="UTF-8"?>
<svg width="12px" height="12px" viewBox="0 0 12 12" version="1.1" xmlns="http://www.w3.org/2000/svg" xmlns:xlink="http://www.w3.org/1999/xlink">
    <defs></defs>
    <g id="Page-1" stroke="none" stroke-width="1" fill="none" fill-rule="evenodd">
        <g id="admin+modal+edit_add" transform="translate(-1053.000000, -26.000000)" fill-rule="nonzero" fill="#0D3299">
            <g id="header">
                <g id="add-button" transform="translate(1041.000000, 17.000000)">
                    <path d="M24,14.0994 L24,15.876 C24,16.041 23.8524,16.2 23.6868,16.2 L19.2,16.2 L19.2,20.6754 C19.2,20.8404 19.056,21 18.8904,21 L17.1138,21 C16.9488,21 16.8,20.8404 16.8,20.6754 L16.8,16.2 L12.3,16.2 C12.135,16.2 12,16.041 12,15.876 L12,14.0994 C12,13.9344 12.135,13.8 12.3,13.8 L16.8,13.8 L16.8,9.3 C16.8,9.135 16.9488,9 17.1138,9 L18.8904,9 C19.056,9 19.2,9.135 19.2,9.3 L19.2,13.8 L23.6868,13.8 C23.8524,13.8 24,13.9344 24,14.0994 Z" id="plus_5_"></path>
                </g>
            </g>
        </g>
    </g>
</svg>