<?xml version="1.0" encoding="UTF-8"?>
<svg width="20px" height="16px" viewBox="0 0 20 16" version="1.1" xmlns="http://www.w3.org/2000/svg" xmlns:xlink="http://www.w3.org/1999/xlink">
    <defs></defs>
    <g id="Page-1" stroke="none" stroke-width="1" fill="none" fill-rule="evenodd" opacity="0.5">
        <g id="admin+modal+edit_add" transform="translate(-310.000000, -24.000000)" fill-rule="nonzero" fill="#FFFFFF">
            <g id="header">
                <path d="M325.874327,33.177059 L316.713324,24 L310.355806,24 C310.169176,24 310.014769,24.150642 310.014769,24.3389446 L310,30.7250909 L319.161002,39.9021499 C319.291241,40.0326167 319.504725,40.0326167 319.636306,39.9021499 L325.874327,33.6531955 C326.004565,33.5227287 326.004565,33.3075258 325.874327,33.177059 Z M312.377859,26.364542 C312.905527,25.8346048 313.762147,25.8346048 314.291157,26.364542 C314.820167,26.8944791 314.820167,27.7512557 314.291157,28.2811929 C313.762147,28.812475 312.905527,28.812475 312.377859,28.2811929 C311.84885,27.7512557 311.84885,26.8944791 312.377859,26.364542 Z M329.902321,33.177059 C330.03256,33.3075258 330.03256,33.5227287 329.902321,33.6531955 L323.6643,39.9021499 C323.532719,40.0326167 323.319235,40.0326167 323.188997,39.9021499 L322.430391,39.1422147 L328.125976,33.4151273 L318.727322,24 L320.741319,24 L329.902321,33.177059 Z" id="tags"></path>
            </g>
        </g>
    </g>
</svg>