<?xml version="1.0" encoding="UTF-8"?>
<svg width="19px" height="19px" viewBox="0 0 19 16" version="1.1" xmlns="http://www.w3.org/2000/svg" xmlns:xlink="http://www.w3.org/1999/xlink">
    <defs></defs>
    <g id="Page-1" stroke="none" stroke-width="1" fill="none" fill-rule="evenodd">
        <g id="admin+modal+edit_add" transform="translate(-1237.000000, -24.000000)" fill-rule="nonzero" fill="#FFFFFF">
            <g id="header">
                <path d="M1242.2038,24 L1248.151,24 C1248.56135,24 1248.8944,24.3258182 1248.8944,24.7272727 L1248.8944,26.1818182 C1248.8944,26.5832727 1248.56135,26.9090909 1248.151,26.9090909 L1241.4604,26.9090909 C1240.64266,26.9090909 1239.9736,27.5636364 1239.9736,28.3636364 L1239.9736,35.6363636 C1239.9736,36.4363636 1240.64266,37.0909091 1241.4604,37.0909091 L1248.151,37.0909091 C1248.56135,37.0909091 1248.8944,37.4167273 1248.8944,37.8181818 L1248.8944,39.2727273 C1248.8944,39.6741818 1248.56135,40 1248.151,40 L1242.2038,40 C1238.93284,40 1237,38.1090909 1237,34.9090909 L1237,29.0909091 C1237,25.8909091 1238.93284,24 1242.2038,24 Z M1255.76936,31.5214545 C1256.07713,31.7847273 1256.07713,32.2152727 1255.76787,32.48 L1250.94023,36.6123636 C1250.63247,36.8756364 1250.3812,36.7636364 1250.3812,36.3636364 L1250.3812,34.1818182 L1246.6642,34.1818182 C1246.25533,34.1818182 1245.9208,33.8545455 1245.9208,33.4545455 L1245.9208,30.5454545 C1245.9208,30.1454545 1246.25533,29.8181818 1246.6642,29.8181818 L1250.3812,29.8181818 L1250.3812,27.6363636 C1250.3812,27.2363636 1250.63247,27.1243636 1250.94172,27.3890909 L1255.76936,31.5214545 Z" id="Combined-Shape"></path>
            </g>
        </g>
    </g>
</svg>