<?xml version="1.0" encoding="UTF-8"?>
<svg width="90px" height="90px" viewBox="0 0 90 90" version="1.1" xmlns="http://www.w3.org/2000/svg" xmlns:xlink="http://www.w3.org/1999/xlink">
    <!-- Generator: Sketch 44.1 (41455) - http://www.bohemiancoding.com/sketch -->
    <title>Combined Shape</title>
    <desc>Created with Sketch.</desc>
    <defs></defs>
    <g id="Page-1" stroke="none" stroke-width="1" fill="none" fill-rule="evenodd" opacity="0.5">
        <g id="requests_states" transform="translate(-738.000000, -192.000000)" fill-rule="nonzero" fill="#990D0D">
            <g id="request_loading" transform="translate(574.000000, 96.000000)">
                <path d="M232.009,131.923 C231.376,132.27 230.678,132.446 229.969,132.446 C228.475,132.446 227.068,131.66 226.302,130.394 C225.16,128.351 225.857,125.79 227.844,124.665 L241.568,116.773 C242.18,116.402 242.902,116.2 243.636,116.2 C245.127,116.2 246.506,117.015 247.24,118.328 C247.793,119.244 247.953,120.352 247.678,121.424 C247.403,122.501 246.692,123.432 245.733,123.984 L232.009,131.923 Z M208.59,120.169 C206.291,120.169 204.418,118.278 204.419,115.954 L204.419,100.169 C204.419,97.909 206.33,96 208.59,96 C210.914,96 212.806,97.871 212.806,100.169 L212.806,115.954 C212.806,118.278 210.915,120.169 208.59,120.169 Z M204.418,181.059 L204.418,178.715 C204.418,176.416 206.29,174.545 208.589,174.545 C210.913,174.545 212.805,176.416 212.805,178.715 L212.805,181.059 C212.805,183.358 210.914,185.227 208.589,185.227 C206.291,185.227 204.418,183.358 204.418,181.059 Z M173.598,116.2 C174.338,116.2 175.069,116.401 175.713,116.778 L187.042,123.327 C189.014,124.445 189.713,126.984 188.591,128.984 C187.825,130.288 186.431,131.089 184.943,131.089 C184.218,131.089 183.504,130.899 182.875,130.538 L171.488,123.983 C170.52,123.441 169.824,122.548 169.542,121.47 C169.257,120.39 169.42,119.264 170,118.304 C170.7,117.019 172.084,116.2 173.598,116.2 Z M196.307,123.459 C196.307,123.459 196.307,123.459 196.304,123.46 C194.836,123.46 193.445,122.671 192.675,121.404 L184.773,107.657 C184.215,106.689 184.074,105.563 184.372,104.483 C184.667,103.413 185.359,102.528 186.328,101.988 C186.935,101.619 187.659,101.417 188.399,101.417 C189.874,101.417 191.25,102.211 191.984,103.49 L199.897,117.17 C200.471,118.165 200.619,119.315 200.321,120.408 C200.03,121.467 199.347,122.348 198.398,122.886 C197.776,123.257 197.048,123.459 196.307,123.459 Z M168.17,144.806 C165.868,144.806 163.999,142.936 164,140.638 C164,138.314 165.868,136.422 168.17,136.422 L178.595,136.422 C180.894,136.422 182.766,138.29 182.766,140.589 C182.766,142.914 180.894,144.806 178.595,144.806 L168.17,144.806 Z M178.185,153.32 C180.224,152.225 182.843,152.978 183.904,154.872 C184.445,155.814 184.59,156.976 184.295,158.053 C183.997,159.138 183.308,160.033 182.35,160.577 L175.71,164.448 C175.057,164.815 174.331,165.003 173.601,165.003 C172.078,165.003 170.692,164.194 169.981,162.889 C169.433,161.986 169.265,160.881 169.535,159.81 C169.807,158.712 170.497,157.786 171.477,157.201 L178.185,153.32 Z M193.013,167.616 C193.999,168.216 194.704,169.173 194.975,170.264 C195.239,171.33 195.071,172.425 194.51,173.353 L192.032,177.687 C191.281,179.002 189.896,179.819 188.418,179.819 C187.675,179.819 186.943,179.615 186.302,179.226 C185.341,178.689 184.638,177.788 184.344,176.704 C184.053,175.621 184.206,174.488 184.777,173.516 L187.258,169.171 C188.426,167.25 191.076,166.536 193.013,167.616 Z M220.887,123.474 C220.163,123.474 219.451,123.287 218.825,122.934 C216.824,121.741 216.158,119.219 217.294,117.181 L225.192,103.49 C225.969,102.176 227.324,101.394 228.827,101.394 C229.548,101.394 230.267,101.583 230.902,101.944 C231.883,102.49 232.585,103.389 232.88,104.473 C233.175,105.557 233.021,106.689 232.447,107.663 L224.535,121.388 C223.814,122.671 222.413,123.474 220.887,123.474 Z M249.034,136.421 C250.162,136.421 251.218,136.86 252.004,137.656 C252.792,138.456 253.219,139.516 253.203,140.646 C253.203,142.935 251.334,144.805 249.035,144.805 L233.223,144.805 C230.925,144.805 229.055,142.913 229.055,140.588 C229.055,138.329 230.963,136.421 233.223,136.421 L249.034,136.421 Z M226.715,172.022 C228.659,170.9 231.293,171.6 232.421,173.512 C232.987,174.464 233.143,175.632 232.851,176.716 C232.56,177.8 231.868,178.695 230.899,179.238 C230.269,179.596 229.553,179.785 228.832,179.785 C227.34,179.785 225.962,178.979 225.235,177.68 C224.673,176.777 224.503,175.67 224.773,174.596 C225.045,173.515 225.75,172.577 226.715,172.022 Z" id="Combined-Shape"></path>
            </g>
        </g>
    </g>
</svg>