<?xml version="1.0" encoding="UTF-8"?>
<svg width="12px" height="16px" viewBox="0 0 12 16" version="1.1" xmlns="http://www.w3.org/2000/svg" xmlns:xlink="http://www.w3.org/1999/xlink">
    <defs></defs>
    <g id="Page-1" stroke="none" stroke-width="1" fill="none" fill-rule="evenodd" opacity="0.5">
        <g id="index" transform="translate(-737.000000, -2912.000000)" fill-rule="nonzero" fill="#FFFFFF">
            <g id="footer" transform="translate(0.000000, 2678.000000)">
                <g id="map-button" transform="translate(720.000000, 220.000000)">
                    <path d="M29,20.0315686 C29,21.1897402 28.7546518,22.449852 28.0279666,23.5836896 C25.837883,26.9292996 23.0661838,30 23.0661838,30 C23.0661838,30 19.8793315,27.0371588 17.8436769,23.5231832 C17.3335933,22.4268333 17,21.2660309 17,20.1039132 C17,16.8372246 19.6854596,14 23,14 C26.3145404,14.0006577 29,16.7655377 29,20.0315686 Z M26.6414485,19.7928313 C26.6414485,17.8414995 25.0349861,16.2630714 23.0541504,16.2630714 C21.0733148,16.2630714 19.4668524,17.8408418 19.4668524,19.7928313 C19.4668524,21.7428477 21.0733148,23.3212759 23.0541504,23.3212759 C25.0349861,23.3212759 26.6414485,21.7428477 26.6414485,19.7928313 Z" id="map-marker_4_"></path>
                </g>
            </g>
        </g>
    </g>
</svg>