<?xml version="1.0" encoding="UTF-8"?>
<svg width="31px" height="24px" viewBox="0 0 31 24" version="1.1" xmlns="http://www.w3.org/2000/svg" xmlns:xlink="http://www.w3.org/1999/xlink">
    <defs></defs>
    <g id="Page-1" stroke="none" stroke-width="1" fill="none" fill-rule="evenodd">
        <g id="index" transform="translate(-720.000000, -678.000000)" fill-rule="nonzero" fill="#FFFFFF">
            <path d="M746.258938,680.12352 L745.620531,678.8592 C745.382219,678.38592 744.751562,678 744.21875,678 L726.78125,678 C726.248438,678 725.617781,678.38592 725.379469,678.85824 L724.736219,680.13408 C722.883969,680.7984 720,681.9648 720,682.8 C720,684.02976 720,686.64 720,686.64 C720,687.168 720.500844,687.6 721.032687,687.6 L722.001437,687.6 C722.53425,687.6 722.90625,687.168 722.90625,686.64 C722.90625,686.64 722.90625,683.50464 722.90625,682.8 C722.90625,682.56864 723.321844,682.26912 723.875,681.97152 L723.875,691.43904 L723.875,701.52 C723.875,701.784 724.092969,702 724.359375,702 L726.296875,702 C726.563281,702 726.78125,701.784 726.78125,701.52 L726.78125,700.08 L744.21875,700.08 L744.21875,701.52 C744.21875,701.784 744.436719,702 744.703125,702 L746.640625,702 C746.907031,702 747.125,701.784 747.125,701.52 L747.125,691.43904 L747.125,681.9696 C747.678156,682.26816 748.09375,682.56864 748.09375,682.8 C748.09375,683.50464 748.09375,686.64 748.09375,686.64 C748.09375,687.168 748.529688,687.6 749.0625,687.6 L750.03125,687.6 C750.564062,687.6 751,687.168 751,686.64 C751,686.64 751,684.02976 751,682.8 C751,681.96 748.100531,680.78496 746.258938,680.12352 Z M725.8125,682.32 C725.8125,682.056 726.030469,681.84 726.296875,681.84 L744.703125,681.84 C744.969531,681.84 745.1875,682.056 745.1875,682.32 L745.1875,691.64256 C745.1875,691.90656 744.982125,692.19456 744.73025,692.28288 C744.73025,692.28288 741.664156,693.4608 735.5,693.4608 C729.335844,693.4608 726.26975,692.28288 726.26975,692.28288 C726.017875,692.19456 725.8125,691.90656 725.8125,691.64256 L725.8125,682.32 Z M728.71875,697.2 L725.8125,697.2 L724.84375,696.336 L724.84375,694.32 L728.71875,695.28 L728.71875,697.2 Z M739.375,699.12 L732.59375,699.12 L732.59375,697.2 L739.375,697.2 L739.375,699.12 Z M742.28125,697.2 L742.28125,695.28 L746.15625,694.32 L746.15625,696.336 L745.1875,697.2 L742.28125,697.2 Z" id="bus"></path>
        </g>
    </g>
</svg>