<?xml version="1.0" encoding="UTF-8"?>
<svg width="264px" height="128px" viewBox="0 0 264 128" version="1.1" xmlns="http://www.w3.org/2000/svg" xmlns:xlink="http://www.w3.org/1999/xlink">
    <defs></defs>
    <g id="Page-1" stroke="none" stroke-width="1" fill="none" fill-rule="evenodd">
        <g id="index" transform="translate(-240.000000, -48.000000)">
            <g id="logo" transform="translate(240.000000, 48.000000)">
                <polygon id="Fill-1" fill="#990D0D" points="137.777778 128 264 128 264 1.77777778 137.777778 1.77777778"></polygon>
                <path d="M183.894805,46.2165442 L183.894805,22.8819151 C172.991952,27.2781095 164.190921,35.6750404 159.384754,46.2165442 L183.894805,46.2165442 Z M142.461877,62.1081862 C143.754026,31.4821402 168.26212,6.88780767 198.780778,5.59143939 L198.780778,62.1081862 L142.461877,62.1081862 Z" id="Fill-2" fill="#FFFFFF"></path>
                <path d="M219.051139,22.8818496 C229.866565,27.2426885 245.401385,35.9087141 245.649963,62.1084481 L260.16731,62.1084481 C258.875161,31.4820747 234.367067,6.88806957 203.848409,5.59137391 L203.848409,62.1084481 L219.051139,62.1084481 L219.051139,22.8818496 Z" id="Fill-4" fill="#FFFFFF"></path>
                <path d="M183.261486,105.334212 C166.158537,98.977424 160.140796,80.8606772 160.140796,80.8606772 L183.698944,80.8606772 L183.698944,91.0316031 L198.780647,91.0316031 L198.780647,67.1938128 L142.462072,67.1938128 C143.754221,97.8198588 168.262315,122.414191 198.780647,123.710887 L198.780647,109.008892 C193.887706,108.40523 188.529578,107.292186 183.261486,105.334212" id="Fill-6" fill="#FFFFFF"></path>
                <g id="Group-2" transform="translate(0.000000, 66.000000)" fill="#0D3299">
                    <path d="M3.85791746,39.0474394 C2.70897822,39.0474394 1.65268484,38.8326875 0.690668418,38.4028563 L0.690668418,31.5275212 C0.814304981,31.5998691 0.993398577,31.653557 1.22631812,31.6885852 C1.45923766,31.7245954 1.65268484,31.7426005 1.80861697,31.7426005 C2.98822069,31.7426005 3.95806634,31.2947642 4.71945878,30.3997463 C5.47987258,29.5050558 6.07000066,28.1081862 6.48919059,26.2097923 C6.90870673,24.3120532 7.195126,21.8587744 7.35105813,18.8512655 C7.5060116,15.8427744 7.58397767,12.2263652 7.58397767,8.00072839 L7.58397767,0.266058312 L31.5701233,0.266058312 L31.5701233,38.6179355 L24.2576241,38.6179355 L24.2576241,7.35614527 L14.5236099,7.35614527 C14.4303115,11.7968614 14.2978671,15.9501504 14.1275814,19.8179765 C13.9566432,23.6851478 13.5456088,27.0422834 12.8931731,29.8890558 C12.2413898,32.7361555 11.2167396,34.9746824 9.81954855,36.6036542 C8.42203131,38.2336082 6.43471221,39.0474394 3.85791746,39.0474394" id="Fill-16"></path>
                    <path d="M53.6201333,23.7926547 L49.5521968,9.71952941 L49.4618345,9.71952941 L45.2581914,23.7926547 L53.6201333,23.7926547 Z M45.936072,0.265861893 L53.2133397,0.265861893 L65.2817688,38.6177391 L57.9141388,38.6177391 L55.4733769,30.077422 L43.4049478,30.077422 L40.8738235,38.6177391 L33.7322625,38.6177391 L45.936072,0.265861893 Z" id="Fill-18"></path>
                    <path d="M80.7416239,31.5276194 C81.7701887,31.5276194 82.7690678,31.3312 83.7379348,30.9367243 C84.7061493,30.5429033 85.5689955,29.889154 86.3258209,28.9761309 C87.0819939,28.0627806 87.6877804,26.8728061 88.1418756,25.4042435 C88.5959709,23.9363355 88.8226923,22.1459724 88.8226923,20.0328266 C88.8226923,18.0990772 88.6638242,16.3532358 88.346088,14.7956297 C88.0283518,13.2380235 87.5060771,11.9043355 86.7799161,10.793911 C86.053429,9.68414118 85.092065,8.83331765 83.8968028,8.24242251 C82.7008882,7.65152737 81.2254049,7.35624348 79.4703529,7.35624348 L74.3855954,7.35624348 L74.3855954,31.5276194 L80.7416239,31.5276194 Z M81.2410634,0.265829156 C83.32951,0.265829156 85.2737684,0.660304859 87.0748171,1.44761944 C88.8752134,2.23558875 90.4345346,3.41737903 91.7511499,4.99266292 C93.0677651,6.56925627 94.0963299,8.53770639 94.8381493,10.901287 C95.5796425,13.2648675 95.9508784,16.0402742 95.9508784,19.2271795 C95.9508784,22.0199366 95.647822,24.5985964 95.0426879,26.9618496 C94.4369014,29.3251028 93.5218603,31.3665555 92.2959337,33.0852256 C91.070007,34.804223 89.5413502,36.1562435 87.7106157,37.1406322 C85.8789025,38.1260031 83.7222763,38.6177064 81.2410634,38.6177064 L67.2577355,38.6177064 L67.2577355,0.265829156 L81.2410634,0.265829156 Z" id="Fill-20"></path>
                    <path d="M114.557561,23.7926547 L110.466789,9.71952941 L110.376101,9.71952941 L106.14897,23.7926547 L114.557561,23.7926547 Z M114.148484,0.265861893 L126.28444,38.6177391 L118.875707,38.6177391 L116.421244,30.077422 L104.285288,30.077422 L101.73981,38.6177391 L94.5581239,38.6177391 L106.830439,0.265861893 L114.148484,0.265861893 Z" id="Fill-22"></path>
                </g>
                <g id="Group" fill="#0D3299">
                    <path d="M20.3682266,25.1267274 L16.2020985,10.7773054 L16.1094527,10.7773054 L11.8043558,25.1267274 L20.3682266,25.1267274 Z M12.4985473,1.13802148 L19.9516464,1.13802148 L32.3113881,40.2428399 L24.7659693,40.2428399 L22.266162,31.5345841 L9.90642036,31.5345841 L7.31396716,40.2428399 L-0.000163108922,40.2428399 L12.4985473,1.13802148 Z" id="Fill-8"></path>
                    <path d="M47.4423829,41.1192307 C42.3400096,41.1192307 38.400603,39.8866987 35.6241629,37.4222895 C32.8470704,34.9578803 31.4244344,31.5166118 31.3552762,27.0984839 L39.4246008,27.0984839 C39.4588536,28.4128573 39.6934043,29.5452153 40.1276002,30.4939212 C40.5611437,31.4439366 41.1339823,32.2191386 41.8457896,32.8214916 C42.5566183,33.4241719 43.3894524,33.8625146 44.3446183,34.1361923 C45.2988055,34.4098701 46.3309587,34.546709 47.4423829,34.546709 C49.3507573,34.546709 50.8953988,33.9361719 52.0759812,32.7121514 C53.2552587,31.489113 53.8460392,29.9832307 53.8460392,28.1938496 C53.8460392,27.0984839 53.6545493,26.1946271 53.2732007,25.4826066 C52.8908733,24.7709136 52.3702297,24.2052256 51.7112696,23.784888 C51.0516571,23.3655325 50.3055969,23.0823611 49.4727628,22.9360286 C48.6396024,22.7903509 47.7718629,22.717021 46.8698706,22.717021 L44.058199,22.717021 L44.058199,16.9115171 C44.3703895,16.9481821 44.7520644,16.9661872 45.2038761,16.9661872 L46.2448372,16.9661872 C50.7221771,16.9661872 52.9610102,15.1957934 52.9610102,11.6536962 C52.9610102,10.1203151 52.4485219,8.93426905 51.4248504,8.09392123 C50.4008525,7.25422813 49.0561826,6.8342179 47.3901881,6.8342179 C45.3767715,6.8342179 43.772106,7.34589054 42.5745603,8.36759898 C41.3773408,9.39028951 40.6913047,10.8509954 40.518083,12.7490619 L32.8128175,12.7490619 C32.8470704,10.5583304 33.2636506,8.67826905 34.0625581,7.10789565 C34.8604869,5.53850435 35.9278717,4.24213606 37.2643862,3.21944552 C38.5999221,2.19773708 40.1445635,1.43955806 41.8976582,0.946545269 C43.6501005,0.453532481 45.4981246,0.207026087 47.4423829,0.207026087 C49.3168307,0.207026087 51.0607912,0.472192327 52.6745909,1.00121535 C54.2883906,1.53089309 55.6761213,2.27041228 56.8397403,3.21944552 C58.0020545,4.1691335 58.9219888,5.31000307 59.5988909,6.64238159 C60.2754667,7.9757422 60.6140808,9.46296471 60.6140808,11.1060133 C60.6140808,13.0777371 60.0934371,14.7754558 59.0521498,16.1994967 C58.0108624,17.6235376 56.6573846,18.5365606 54.99139,18.937911 C55.9625406,19.1209084 56.8824749,19.4675887 57.7505406,19.9782793 C58.6176276,20.4902793 59.3643402,21.1381361 59.9890474,21.9228317 C60.6140808,22.7081821 61.108627,23.630044 61.4730124,24.6887448 C61.8373977,25.7477729 62.0197535,26.8981361 62.0197535,28.1388522 C62.0197535,30.0379008 61.646234,31.7811233 60.9001738,33.3695018 C60.1534612,34.9578803 59.130442,36.3269238 57.8285066,37.4769596 C56.5272236,38.6273228 54.99139,39.5223407 53.2210058,40.1607038 C51.451274,40.799067 49.5249576,41.1192307 47.4423829,41.1192307" id="Fill-11"></path>
                    <polygon id="Fill-14" points="64.4791424 1.13808696 71.7006268 1.13808696 71.7006268 28.2485524 71.8392694 28.2485524 84.4306257 1.13808696 92.5779164 1.13808696 92.5779164 40.2429054 85.356432 40.2429054 85.356432 13.0777698 85.2174632 13.0777698 72.6264331 40.2429054 64.4791424 40.2429054"></polygon>
                    <path d="M115.843969,19.5403949 L109.758701,19.5403949 C108.86095,19.5403949 107.996472,19.4677197 107.165269,19.3213872 C106.334066,19.1757095 105.602359,18.8925381 104.970476,18.4722005 C104.338918,18.0531724 103.831649,17.4593309 103.448996,16.692313 C103.066994,15.9256225 102.875505,14.9219192 102.875505,13.680221 C102.875505,12.4391775 103.066994,11.4344921 103.448996,10.6678015 C103.831649,9.901111 104.338918,9.3079243 104.970476,8.88791407 C105.602359,8.46855857 106.334066,8.18538721 107.165269,8.03905473 C107.996472,7.89337698 108.86095,7.82004706 109.758701,7.82004706 L115.843969,7.82004706 L115.843969,19.5403949 Z M107.613819,1.13818517 C105.386403,1.13818517 103.491078,1.49435908 101.927515,2.20605217 C100.365258,2.91807263 99.0933349,3.85859437 98.1120716,5.02663529 C97.1314608,6.19565831 96.416065,7.52803683 95.9671893,9.02475294 C95.5183135,10.5224512 95.2938756,12.0738373 95.2938756,13.680221 C95.2938756,15.2505944 95.5183135,16.7934691 95.9671893,18.3078629 C96.416065,19.8235662 97.1314608,21.1654384 98.1120716,22.3334793 C99.0933349,23.5025023 100.365258,24.4420419 101.927515,25.1540624 C102.571143,25.4470547 103.273817,25.6762107 104.029663,25.8487325 L97.0166321,40.0986353 L105.748831,40.0986353 L112.578202,26.2219294 L115.843969,26.2219294 L115.843969,40.2426762 L123.674828,40.2426762 L123.674828,1.13818517 L107.613819,1.13818517 Z" id="Fill-24"></path>
                </g>
                <polygon id="Fill-26" fill="#990D0D" points="0.690603175 58.7585473 124.327166 58.7585473 124.327166 47.3007468 0.690603175 47.3007468"></polygon>
                <g id="Group-3" transform="translate(0.000000, 112.000000)" fill="#0D3299">
                    <path d="M11.0178119,4.48383018 C10.8220812,4.16824962 10.5777441,3.89129821 10.284148,3.65297596 C9.99087816,3.41465371 9.6587884,3.22903734 9.28853114,3.09547212 C8.91794767,2.96256164 8.53040088,2.89545166 8.12523831,2.89545166 C7.38439759,2.89545166 6.75544959,3.03981995 6.23872053,3.32691969 C5.72133903,3.6143468 5.3021491,3.99998363 4.98082452,4.48383018 C4.65917373,4.96767673 4.42560175,5.51830588 4.27880372,6.13506292 C4.13200569,6.75247468 4.05860668,7.39051049 4.05860668,8.0494977 C4.05860668,8.68033146 4.13200569,9.2941422 4.27880372,9.88994783 C4.42560175,10.4860808 4.65917373,11.0226332 4.98082452,11.4992777 C5.3021491,11.9762496 5.72133903,12.3586128 6.23872053,12.6457125 C6.75544959,12.933467 7.38439759,13.0768532 8.12523831,13.0768532 C9.13129414,13.0768532 9.91747915,12.768802 10.4834671,12.1513903 C11.0494551,11.5343059 11.395246,10.7211294 11.5208398,9.71120614 L14.7073357,9.71120614 C14.6234978,10.6507458 14.4065629,11.4992777 14.0571836,12.2564747 C13.7078043,13.013999 13.2468585,13.6585821 12.6740199,14.1915335 C12.100529,14.7248123 11.4301513,15.1310731 10.661582,15.4119529 C9.89301281,15.692178 9.04745616,15.8326179 8.12523831,15.8326179 C6.97923503,15.8326179 5.94838664,15.6325974 5.03334559,15.2328839 C4.11797833,14.8334977 3.34582069,14.2831959 2.71719891,13.5816512 C2.0882509,12.8807611 1.60610093,12.0564542 1.27074899,11.1100399 C0.935397044,10.1636256 0.767721073,9.14289923 0.767721073,8.0494977 C0.767721073,6.92794271 0.935397044,5.88626496 1.27074899,4.92577391 C1.60610093,3.96528286 2.0882509,3.12689923 2.71719891,2.41193248 C3.34582069,1.696311 4.11797833,1.13586087 5.03334559,0.728945269 C5.94838664,0.322357033 6.97923503,0.119062916 8.12523831,0.119062916 C8.9495908,0.119062916 9.72892523,0.238224041 10.4625892,0.476546292 C11.1962531,0.715195908 11.8529296,1.06220358 12.4329449,1.51789668 C13.012634,1.97391714 13.4915218,2.53829565 13.8686297,3.21103223 C14.2460637,3.88442353 14.4835503,4.65569719 14.5814157,5.52518056 L11.395246,5.52518056 C11.3391365,5.14641841 11.2135426,4.79941074 11.0178119,4.48383018" id="Fill-28"></path>
                    <polygon id="Fill-29" points="24.0580766 0.476480818 35.2515895 0.476480818 35.2515895 3.25319693 27.3489622 3.25319693 27.3489622 6.47152941 34.6017635 6.47152941 34.6017635 9.03807673 27.3489622 9.03807673 27.3489622 12.7193043 35.4195917 12.7193043 35.4195917 15.4960205 24.0580766 15.4960205"></polygon>
                    <path d="M51.6249198,7.5445688 C52.0020276,7.5445688 52.3654343,7.51674271 52.7148136,7.46043581 C53.0638667,7.40445627 53.3714901,7.29577084 53.6370314,7.13437954 C53.9025727,6.9733156 54.115593,6.74514169 54.2764184,6.45051253 C54.4369176,6.15621074 54.5174934,5.77057391 54.5174934,5.29360205 C54.5174934,4.81728491 54.4369176,4.43132072 54.2764184,4.13701893 C54.115593,3.84238977 53.9025727,3.61421586 53.6370314,3.45315192 C53.3714901,3.29208798 53.0638667,3.18340256 52.7148136,3.12709565 C52.3654343,3.07111611 52.0020276,3.04296266 51.6249198,3.04296266 L49.0676981,3.04296266 L49.0676981,7.5445688 L51.6249198,7.5445688 Z M45.7764863,0.476415345 L52.5262597,0.476415345 C53.4621787,0.476415345 54.2588026,0.61325422 54.9158054,0.886931969 C55.5724819,1.16028235 56.1071529,1.52136675 56.5194923,1.97018517 C56.9315054,2.41933095 57.2319521,2.9346046 57.4208322,3.51600614 C57.6093861,4.09838977 57.7036631,4.69092174 57.7036631,5.29360205 C57.7036631,5.91101381 57.6093861,6.50681944 57.4208322,7.08167366 C57.2319521,7.65718261 56.9315054,8.16852788 56.5194923,8.61734629 C56.1071529,9.06616471 55.5724819,9.42692174 54.9158054,9.70059949 C54.2588026,9.97394987 53.4621787,10.1111161 52.5262597,10.1111161 L49.0676981,10.1111161 L49.0676981,15.495955 L45.7764863,15.495955 L45.7764863,0.476415345 Z" id="Fill-30"></path>
                    <path d="M74.2865557,12.9294731 C74.6078802,12.9294731 74.9151774,12.898046 75.2087735,12.8348645 C75.5023696,12.7720102 75.7607341,12.6665985 75.9845195,12.5192839 C76.2079788,12.3719693 76.3860937,12.1722762 76.5188644,11.9198772 C76.651635,11.6678056 76.7181835,11.345023 76.7181835,10.9525115 C76.7181835,10.1809105 76.5012486,9.63093606 76.0680313,9.30095141 C75.634814,8.97162148 75.0619755,8.80630179 74.3495157,8.80630179 L70.765034,8.80630179 L70.765034,12.9294731 L74.2865557,12.9294731 Z M74.0980018,6.55598977 C74.6848677,6.55598977 75.1670176,6.41587724 75.5441255,6.13499744 C75.9215595,5.85477238 76.1101134,5.39907928 76.1101134,4.76791816 C76.1101134,4.41763683 76.0471534,4.12988235 75.9215595,3.90563683 C75.7956394,3.68106394 75.6279634,3.50559591 75.4185316,3.3795601 C75.2087735,3.25319693 74.9676985,3.16611765 74.6953066,3.11635806 C74.4225885,3.06758056 74.1397576,3.04302813 73.8461616,3.04302813 L70.765034,3.04302813 L70.765034,6.55598977 L74.0980018,6.55598977 Z M67.4738222,0.476480818 L74.5171917,0.476480818 C75.2299777,0.476480818 75.8794774,0.539335038 76.4666695,0.666025575 C77.0535354,0.792061381 77.5565633,0.999283887 77.9757533,1.286711 C78.3949432,1.57413811 78.7198562,1.95617391 78.9504922,2.43314578 C79.1811282,2.90979028 79.2962831,3.49872123 79.2962831,4.19993862 C79.2962831,4.95680818 79.1253449,5.58796931 78.7828162,6.09309463 C78.4402875,6.59789258 77.9339974,7.01168286 77.2629673,7.33413811 C78.1855113,7.60094118 78.8735048,8.06678261 79.3279262,8.73297187 C79.7816952,9.39948849 80.0090691,10.2021893 80.0090691,11.1414015 C80.0090691,11.8992532 79.862271,12.5546394 79.5690012,13.1085422 C79.2754051,13.662445 78.8806816,14.1148645 78.3845042,14.4648184 C77.8883269,14.8160818 77.3223389,15.0753555 76.6865403,15.2432941 C76.0507418,15.4118875 75.3976536,15.4960205 74.7266235,15.4960205 L67.4738222,15.4960205 L67.4738222,0.476480818 Z" id="Fill-31"></path>
                    <polygon id="Fill-32" points="89.3809815 0.476480818 92.6509892 0.476480818 92.6509892 10.8893299 92.7139492 10.8893299 98.4155847 0.476480818 102.104782 0.476480818 102.104782 15.4960205 98.8347746 15.4960205 98.8347746 5.06254731 98.7718146 5.06254731 93.0705053 15.4960205 89.3809815 15.4960205"></polygon>
                    <path d="M118.131963,15.8326179 C116.971932,15.8326179 115.937822,15.6325974 115.029631,15.2328839 C114.121114,14.8334977 113.352545,14.2831959 112.723923,13.5816512 C112.094975,12.8807611 111.612825,12.0564542 111.277473,11.1100399 C110.942122,10.1636256 110.774446,9.14289923 110.774446,8.0494977 C110.774446,6.94169207 110.942122,5.90394271 111.277473,4.93624962 C111.612825,3.96855652 112.094975,3.12689923 112.723923,2.41193248 C113.352545,1.696311 114.121114,1.13586087 115.029631,0.728945269 C115.937822,0.322357033 116.971932,0.119062916 118.131963,0.119062916 C118.942288,0.119062916 119.717708,0.238224041 120.458548,0.476546292 C121.199063,0.715195908 121.859654,1.06220358 122.439669,1.51789668 C123.019359,1.97391714 123.498246,2.53829565 123.875354,3.21103223 C124.253114,3.88442353 124.490275,4.65569719 124.58814,5.52518056 L121.40197,5.52518056 C121.346187,5.14641841 121.220267,4.79941074 121.024536,4.48383018 C120.828806,4.16824962 120.584469,3.89129821 120.290872,3.65297596 C119.997603,3.41465371 119.665513,3.22903734 119.295256,3.09547212 C118.924998,2.96256164 118.537125,2.89545166 118.131963,2.89545166 C117.391122,2.89545166 116.762174,3.03981995 116.245445,3.32691969 C115.728063,3.6143468 115.308874,3.99998363 114.987549,4.48383018 C114.665898,4.96767673 114.432326,5.51830588 114.285528,6.13506292 C114.13873,6.75247468 114.065331,7.39051049 114.065331,8.0494977 C114.065331,8.68033146 114.13873,9.2941422 114.285528,9.88994783 C114.432326,10.4860808 114.665898,11.0226332 114.987549,11.4992777 C115.308874,11.9762496 115.728063,12.3586128 116.245445,12.6457125 C116.762174,12.933467 117.391122,13.0768532 118.131963,13.0768532 C119.138019,13.0768532 119.924204,12.768802 120.490192,12.1513903 C121.05618,11.5343059 121.40197,10.7211294 121.527891,9.71120614 L124.71406,9.71120614 C124.630222,10.6651499 124.413287,11.5169555 124.064234,12.2669504 C123.714529,13.0172726 123.253583,13.6585821 122.680744,14.1915335 C122.10758,14.7248123 121.436876,15.1310731 120.668307,15.4119529 C119.899411,15.692178 119.054181,15.8326179 118.131963,15.8326179" id="Fill-33"></path>
                </g>
            </g>
        </g>
    </g>
</svg>