<?xml version="1.0" encoding="UTF-8"?>
<svg width="20px" height="20px" viewBox="0 0 20 20" version="1.1" xmlns="http://www.w3.org/2000/svg" xmlns:xlink="http://www.w3.org/1999/xlink">
    <defs></defs>
    <g id="Page-1" stroke="none" stroke-width="1" fill="none" fill-rule="evenodd">
        <g id="index" transform="translate(-958.000000, -136.000000)" fill-rule="nonzero" fill="#0D3299">
            <g id="time_icon" transform="translate(958.000000, 136.000000)">
                <path d="M10,0.38 C4.68833333,0.38 0.381666667,4.68666667 0.381666667,10 C0.381666667,15.3133333 4.68833333,19.6183333 10,19.6183333 C15.3116667,19.6183333 19.6183333,15.3116667 19.6183333,10 C19.6183333,4.68833333 15.3116667,0.38 10,0.38 Z M10,17.1183333 C6.075,17.1183333 2.88166667,13.925 2.88166667,10 C2.88166667,6.075 6.075,2.88 10,2.88 C13.925,2.88 17.1183333,6.07333333 17.1183333,10 C17.1183333,13.9266667 13.925,17.1183333 10,17.1183333 Z" id="path_30_"></path>
                <path d="M12.9166667,10 L10,10 L10,5.41666667 C10,5.18666667 9.81333333,5 9.58333333,5 L8.75,5 C8.52,5 8.33333333,5.18666667 8.33333333,5.41666667 L8.33333333,11.25 C8.33333333,11.48 8.52,11.6666667 8.75,11.6666667 L12.9166667,11.6666667 C13.1466667,11.6666667 13.3333333,11.48 13.3333333,11.25 L13.3333333,10.4166667 C13.3333333,10.1866667 13.1466667,10 12.9166667,10 Z" id="path_29_"></path>
            </g>
        </g>
    </g>
</svg>