<?xml version="1.0" encoding="UTF-8"?>
<svg width="17px" height="16px" viewBox="0 0 17 16" version="1.1" xmlns="http://www.w3.org/2000/svg" xmlns:xlink="http://www.w3.org/1999/xlink">
    <defs></defs>
    <g id="Page-1" stroke="none" stroke-width="1" fill="none" fill-rule="evenodd" opacity="0.5">
        <g id="admin+modal+edit_add" transform="translate(-457.000000, -24.000000)" fill-rule="nonzero" fill="#FFFFFF">
            <g id="header">
                <path d="M473.26087,36.5149091 C472.78487,36.2487273 469.681261,34.4414545 468.086957,33.8065455 L468.086957,31.0596364 C468.548174,30.728 468.826087,30.2174545 468.826087,29.4429091 L468.826087,27.2727273 C468.826087,25.4727273 467.717391,24 465.5,24 C463.282609,24 462.173913,25.4727273 462.173913,27.2727273 C462.173913,27.2727273 462.173913,27.6247273 462.173913,29.4429091 C462.173913,30.2247273 462.451826,30.7367273 462.913043,31.0669091 L462.913043,33.8065455 C461.41113,34.4414545 458.21513,36.248 457.73913,36.5149091 C457.147087,36.8458182 457,37.1607273 457,37.9258182 C457,38.2385455 457,39.6363636 457,39.6363636 C457,39.8363636 457.166304,40 457.369565,40 L473.630435,40 C473.833696,40 474,39.8363636 474,39.6363636 C474,39.6363636 474,38.2385455 474,37.9258182 C474,37.1607273 473.852913,36.8458182 473.26087,36.5149091 Z" id="user"></path>
            </g>
        </g>
    </g>
</svg>